<svg xmlns="http://www.w3.org/2000/svg" viewBox="0 0 319 86.44"><defs><style>.cls-1{fill:#f88b1a;opacity:0.1;}.cls-2{fill:#e15025;}</style></defs><g id="Layer_2" data-name="Layer 2"><g id="Layer_1-2" data-name="Layer 1"><path class="cls-1" d="M3,85.44A2,2,0,0,1,1.71,82l2.84-2.35a10.4,10.4,0,0,0,3.76-8V9.48A8.48,8.48,0,0,1,16.79,1H309.52A8.48,8.48,0,0,1,318,9.48V77a8.48,8.48,0,0,1-8.48,8.48Z"/><path class="cls-2" d="M309.52,2A7.48,7.48,0,0,1,317,9.48V77a7.48,7.48,0,0,1-7.48,7.48H3a1,1,0,0,1-.62-1.7l2.83-2.35A11.41,11.41,0,0,0,9.31,71.6V9.48A7.48,7.48,0,0,1,16.79,2H309.52m0-2H16.79A9.49,9.49,0,0,0,7.31,9.48V71.6a9.41,9.41,0,0,1-3.4,7.25L1.08,81.2A3,3,0,0,0,3,86.44H309.52A9.49,9.49,0,0,0,319,77V9.48A9.49,9.49,0,0,0,309.52,0Z"/></g></g></svg>