<svg xmlns="http://www.w3.org/2000/svg" viewBox="0 0 57.88 34.51">
   <defs>
      <style>.cls-1{fill:#f88b1a;opacity:0.1;}.cls-2{fill:#e15025;}</style>
   </defs>
   <g id="Layer_2" data-name="Layer 2">
      <g id="Layer_1-2" data-name="Layer 1">
         <path class="cls-1" d="M3,33.51A2,2,0,0,1,1.71,30l2.84-2.35a10.38,10.38,0,0,0,3.76-8V9.48A8.48,8.48,0,0,1,16.79,1H48.4a8.49,8.49,0,0,1,8.48,8.48V25a8.5,8.5,0,0,1-8.48,8.48Z"/>
         <path class="cls-2" d="M48.4,2a7.48,7.48,0,0,1,7.48,7.48V25a7.48,7.48,0,0,1-7.48,7.48H3a1,1,0,0,1-.62-1.71l2.83-2.35a11.4,11.4,0,0,0,4.13-8.78V9.48A7.48,7.48,0,0,1,16.79,2H48.4m0-2H16.79A9.49,9.49,0,0,0,7.31,9.48V19.67a9.38,9.38,0,0,1-3.4,7.24L1.08,29.26A3,3,0,0,0,3,34.51H48.4A9.49,9.49,0,0,0,57.88,25V9.48A9.49,9.49,0,0,0,48.4,0Z"/>
      </g>
   </g>
</svg>