<svg xmlns="http://www.w3.org/2000/svg" viewBox="0 0 199.08 78.13"><defs><style>.cls-1{fill:#f88b1a;opacity:0.1;}.cls-2{fill:#e15025;}</style></defs><g id="Layer_2" data-name="Layer 2"><g id="Layer_2-2" data-name="Layer 2"><g id="big_popup"><path class="cls-1" d="M99.54,77.13a1.17,1.17,0,0,1-1-.63L96.76,73a2.54,2.54,0,0,0-2.28-1.4L10.7,71.57A9.71,9.71,0,0,1,1,61.87V10.7A9.71,9.71,0,0,1,10.7,1H188.37a9.72,9.72,0,0,1,9.71,9.7V61.87a9.72,9.72,0,0,1-9.71,9.7l-83.82.1a2.54,2.54,0,0,0-2.28,1.41l-1.71,3.41A1.14,1.14,0,0,1,99.54,77.13Z"/><path class="cls-2" d="M188.37,2a8.71,8.71,0,0,1,8.71,8.7V61.87a8.71,8.71,0,0,1-8.71,8.7l-83.82.1a3.55,3.55,0,0,0-3.17,2L99.67,76a.15.15,0,0,1-.13.09.14.14,0,0,1-.13-.09l-1.75-3.47a3.58,3.58,0,0,0-3.18-1.95L10.7,70.57A8.71,8.71,0,0,1,2,61.87V10.7A8.71,8.71,0,0,1,10.7,2H188.37m0-2H10.7A10.71,10.71,0,0,0,0,10.7V61.87a10.71,10.71,0,0,0,10.7,10.7l83.78.05a1.56,1.56,0,0,1,1.39.85L97.62,77a2.15,2.15,0,0,0,3.84,0l1.7-3.41a1.55,1.55,0,0,1,1.39-.86l83.83-.1a10.71,10.71,0,0,0,10.7-10.7V10.7A10.71,10.71,0,0,0,188.37,0Z"/></g></g></g></svg>