<svg width="1440" height="457" viewBox="0 0 1440 457" fill="none" xmlns="http://www.w3.org/2000/svg">
<path d="M-11.0714 373.718C83.8605 294.19 150.239 242.938 231.21 158.498C258.585 129.95 283.058 100.417 305.281 70.4947C319.064 51.9366 331.961 32.8367 338.926 13.4652C340.704 8.52099 337.853 0.031401 330.262 1.02006C308.711 3.82681 258.694 57.0519 258.281 57.4838C205.228 112.966 162.231 175.775 140.461 236.603C130.394 264.733 120.244 312.431 139.191 338.401C168.764 378.937 252.678 365.486 310.281 347.581C386.326 323.943 446.375 292.4 513.533 257.68C546.528 240.622 563.948 230.505 597 213.5M736.5 343C754.5 399.5 749.454 411.335 794 440.982C829.007 467.266 876.755 454.028 929.336 440.982C1030.78 415.812 1117.35 363.824 1204.19 320.286C1233.77 305.461 1307.89 267.114 1346.91 256.6C1409.82 239.651 1407.49 278.94 1408.95 305.448C1409.04 307.037 1404.16 348.373 1419.51 353.252C1444.46 361.183 1499.76 301.188 1508.68 294.746" stroke="#E15025" stroke-opacity="0.3" stroke-width="1.5" stroke-linecap="round" stroke-linejoin="round" stroke-dasharray="12.08 12.08"/>
</svg>
